<svg width="16" height="16" viewBox="0 0 16 16" fill="none" xmlns="http://www.w3.org/2000/svg">
<path d="M6.61186 10.3808H9.39012C9.24162 10.8966 9.05643 11.3655 8.83508 11.7881C8.61104 12.2158 8.33161 12.6521 7.99619 13.0969C7.66536 12.6834 7.3931 12.2648 7.1787 11.8412C6.96327 11.4156 6.77413 10.9291 6.61186 10.3808ZM9.82351 4.08926C9.63094 3.6806 9.41926 3.30564 9.18825 2.96475C9.91974 3.12585 10.5678 3.42098 11.1346 3.84917C11.7354 4.3031 12.2213 4.89208 12.5914 5.61923H10.3897C10.2476 5.09858 10.0588 4.58856 9.82351 4.08926ZM4.85984 3.85495C5.42351 3.42285 6.07351 3.12548 6.8122 2.96407C6.58102 3.30515 6.36919 3.68033 6.17649 4.08926C5.94121 4.58856 5.75244 5.09858 5.61033 5.61923H3.40966C3.77934 4.8997 4.26295 4.31253 4.85984 3.85495ZM5.6071 13.664C6.35654 13.9882 7.15467 14.15 8 14.15C8.84783 14.15 9.64664 13.9882 10.3949 13.6639C11.1402 13.3409 11.7912 12.9017 12.3464 12.3464C12.9018 11.7911 13.3409 11.1395 13.664 10.3929C13.9882 9.64346 14.15 8.84533 14.15 8C14.15 7.15217 13.9882 6.35336 13.6639 5.6051C13.3409 4.8598 12.9017 4.20885 12.3464 3.65355C11.7912 3.09825 11.1402 2.65912 10.3949 2.33609C9.64664 2.01177 8.84783 1.85 8 1.85C7.15467 1.85 6.35654 2.01179 5.6071 2.33605C4.86052 2.65907 4.20889 3.09821 3.65355 3.65355C3.09825 4.20885 2.65912 4.8598 2.33609 5.6051C2.01177 6.35336 1.85 7.15217 1.85 8C1.85 8.84533 2.01179 9.64346 2.33605 10.3929C2.65907 11.1395 3.09821 11.7911 3.65355 12.3464C4.20889 12.9018 4.86052 13.3409 5.6071 13.664ZM6.1639 11.9433C6.35776 12.3507 6.56786 12.7118 6.79469 13.0257C6.09891 12.8798 5.46275 12.5884 4.88476 12.1509C4.26471 11.6816 3.77281 11.0922 3.40883 10.3808H5.60658C5.73452 10.9107 5.92039 11.4316 6.1639 11.9433L6.29935 11.8789L6.1639 11.9433ZM11.1152 12.1509C10.5293 12.5944 9.88359 12.8877 9.1766 13.0317C9.37957 12.7227 9.57793 12.3639 9.772 11.9561L9.63655 11.8917L9.772 11.9561C10.0159 11.4435 10.2205 10.9183 10.3858 10.3808H12.5912C12.2272 11.0922 11.7353 11.6816 11.1152 12.1509ZM5.40886 6.5859C5.37353 6.80246 5.34743 7.0149 5.33062 7.22318C5.30936 7.48645 5.29872 7.7454 5.29872 8C5.29872 8.25461 5.30936 8.51355 5.33062 8.77682C5.34743 8.98511 5.37353 9.19754 5.40886 9.4141H3.00904C2.95384 9.22062 2.90938 9.01182 2.87593 8.78749C2.83639 8.52238 2.81667 8.25991 2.81667 8C2.81667 7.74009 2.83639 7.47762 2.87593 7.21251C2.90938 6.98818 2.95384 6.77938 3.00904 6.5859H5.40886ZM9.62041 9.4141H6.37959C6.34136 9.18927 6.31363 8.97295 6.29628 8.76509C6.2757 8.51863 6.26538 8.26361 6.26538 8C6.26538 7.73639 6.2757 7.48137 6.29628 7.23491C6.31363 7.02706 6.34136 6.81073 6.37959 6.5859H9.62041C9.65864 6.81073 9.68638 7.02706 9.70372 7.23491C9.7243 7.48137 9.73462 7.73639 9.73462 8C9.73462 8.26361 9.7243 8.51863 9.70372 8.76509C9.68638 8.97294 9.65864 9.18927 9.62041 9.4141ZM13.1241 8.78749C13.0906 9.01182 13.0462 9.22062 12.991 9.4141H10.5911C10.6265 9.19754 10.6526 8.98511 10.6694 8.77682L10.6694 8.77682C10.6906 8.51355 10.7013 8.2546 10.7013 8C10.7013 7.7454 10.6906 7.48645 10.6694 7.22319L10.6694 7.22318C10.6526 7.01489 10.6265 6.80246 10.5911 6.5859H12.991C13.0462 6.77938 13.0906 6.98818 13.1241 7.21251C13.1636 7.47762 13.1833 7.74009 13.1833 8C13.1833 8.25991 13.1636 8.52238 13.1241 8.78749ZM7.19772 4.13996C7.42323 3.6979 7.69063 3.28389 8 2.89779C8.30937 3.28389 8.57677 3.6979 8.80228 4.13996C9.02902 4.58441 9.22416 5.07734 9.38729 5.61923H6.61271C6.77584 5.07734 6.97098 4.58441 7.19772 4.13996Z" fill="#414141" stroke="#414141" stroke-width="0.3"/>
</svg>
