<svg width="70" height="52" viewBox="0 0 70 52" fill="none" xmlns="http://www.w3.org/2000/svg">
<path d="M47.889 24.2559C46.7895 22.2815 45.7906 20.4211 44.7078 18.6109C44.4631 18.1986 43.9435 17.6958 43.5312 17.679C41.3255 17.5885 39.1164 17.6354 36.3676 17.6354C39.1097 20.1562 41.5032 22.3519 43.8363 24.4939C39.9142 28.369 36.3911 31.8553 32.7574 35.4454C33.2568 32.167 31.7383 28.6774 33.9977 25.5398C32.9116 24.561 31.8255 23.5788 30.7494 22.6067C30.7494 29.2875 30.7494 36.0857 30.7494 43.1319C29.6767 43.0414 28.661 42.9543 27.6353 42.8638C22.3456 52.5817 12.1718 52.5046 6.78822 48.9613C0.070496 44.5365 -1.98438 36.0186 2.08514 29.3579C6.72788 21.7519 14.8233 20.525 24.4675 26.1264C24.4675 23.3676 24.4675 20.7328 24.4675 18.098C24.4675 16.6532 24.4675 15.2051 24.4675 13.7603C24.4742 10.7803 26.2207 8.79243 29.2242 8.71533C33.5619 8.60471 37.9063 8.59801 42.244 8.72539C44.7581 8.79914 46.404 10.4719 47.5672 12.5368C49.203 15.4398 50.7517 18.3897 52.2803 21.353C52.7161 22.1977 53.172 22.5162 54.2011 22.4558C62.0519 22.01 68.4679 27.4204 69.4668 35.2342C70.3786 42.3844 65.4107 49.2295 58.1097 50.8821C51.7339 52.3235 44.8486 48.8641 42.0864 42.8269C39.2203 36.5651 41.054 29.3546 46.5649 25.2247C46.9605 24.923 47.3627 24.6381 47.889 24.2559ZM24.491 36.7159C24.4708 31.1949 19.9019 26.6695 14.3775 26.6997C8.84979 26.7332 4.35455 31.2854 4.37802 36.8332C4.40148 42.3844 8.93025 46.8595 14.4915 46.826C20.0527 46.7925 24.5077 42.2838 24.491 36.7159ZM50.1852 28.1042C45.8744 30.5848 44.0642 35.4756 45.6364 40.1183C47.1415 44.57 51.6971 47.3255 56.5711 46.7321C61.0663 46.1857 64.804 42.2302 65.1593 37.6377C65.5415 32.7335 62.5647 28.4361 57.7812 27.0583C57.0303 26.8404 56.2225 26.817 55.3107 26.6862C55.5319 27.3902 55.6761 27.8461 55.8269 28.3389C53.8592 29.4585 52.0155 29.8071 50.1852 28.1042Z" fill="#FFC3F5"/>
<path d="M58.2102 5.80258C58.1901 8.96367 55.6056 11.5214 52.4545 11.4979C49.2934 11.4744 46.786 8.91003 46.7927 5.70872C46.7994 2.5644 49.3907 0 52.5517 0C55.6558 0.00335216 58.2303 2.6415 58.2102 5.80258Z" fill="#FFC3F5"/>
</svg>
