<svg width="24" height="24" viewBox="0 0 24 24" fill="none" xmlns="http://www.w3.org/2000/svg">
<path d="M6.80078 12.9998L9.70078 15.8998C9.88411 16.0831 9.97578 16.3165 9.97578 16.5998C9.97578 16.8831 9.88411 17.1165 9.70078 17.2998C9.51745 17.4831 9.28411 17.5748 9.00078 17.5748C8.71745 17.5748 8.48411 17.4831 8.30078 17.2998L3.70078 12.6998C3.60078 12.5998 3.52995 12.4915 3.48828 12.3748C3.44661 12.2581 3.42578 12.1331 3.42578 11.9998C3.42578 11.8665 3.44661 11.7415 3.48828 11.6248C3.52995 11.5081 3.60078 11.3998 3.70078 11.2998L8.30078 6.6998C8.48411 6.51647 8.71745 6.4248 9.00078 6.4248C9.28411 6.4248 9.51745 6.51647 9.70078 6.6998C9.88411 6.88314 9.97578 7.11647 9.97578 7.3998C9.97578 7.68314 9.88411 7.91647 9.70078 8.0998L6.80078 10.9998H20.0008C20.2841 10.9998 20.5216 11.0956 20.7133 11.2873C20.9049 11.479 21.0008 11.7165 21.0008 11.9998C21.0008 12.2831 20.9049 12.5206 20.7133 12.7123C20.5216 12.904 20.2841 12.9998 20.0008 12.9998H6.80078Z" fill="white"/>
</svg>
