<svg width="74" height="74" viewBox="0 0 74 74" fill="none" xmlns="http://www.w3.org/2000/svg">
<path d="M21.5839 53.7448L26.0192 58.2276C26.288 58.4964 26.6032 58.6357 26.9649 58.6456C27.3266 58.6554 27.6517 58.5161 27.9403 58.2276C28.2289 57.939 28.3732 57.6109 28.3732 57.2433C28.3732 56.8756 28.2289 56.5475 27.9403 56.259L23.5051 51.8237L27.9878 47.341C28.2565 47.0722 28.3959 46.7569 28.4058 46.3953C28.4157 46.0336 28.2763 45.7084 27.9878 45.4198C27.6992 45.1313 27.379 44.987 27.0271 44.987C26.6753 44.987 26.3552 45.1313 26.0666 45.4198L21.5839 49.9025L17.1012 45.4198C16.8324 45.1511 16.5171 45.0117 16.1555 45.0018C15.7938 44.992 15.4687 45.1313 15.1801 45.4198C14.8915 45.7084 14.7472 46.0286 14.7472 46.3805C14.7472 46.7323 14.8915 47.0524 15.1801 47.341L19.6628 51.8237L15.1801 56.3064C14.9113 56.5752 14.772 56.8905 14.762 57.2521C14.7522 57.6139 14.8915 57.939 15.1801 58.2276C15.4687 58.5161 15.7889 58.6604 16.1407 58.6604C16.4925 58.6604 16.8127 58.5161 17.1012 58.2276L21.5839 53.7448ZM21.5839 65.6986C17.7337 65.6986 14.4587 64.3487 11.7588 61.6488C9.05892 58.9489 7.70898 55.6739 7.70898 51.8237C7.70898 47.9735 9.05892 44.6985 11.7588 41.9987C14.4587 39.2988 17.7337 37.9489 21.5839 37.9489C25.4341 37.9489 28.7091 39.2988 31.409 41.9987C34.1089 44.6985 35.4588 47.9735 35.4588 51.8237C35.4588 55.6739 34.1089 58.9489 31.409 61.6488C28.7091 64.3487 25.4341 65.6986 21.5839 65.6986ZM43.7246 43.89C43.4479 44.1272 43.1168 44.3545 42.7313 44.5719C42.3459 44.7894 41.9852 44.9574 41.6492 45.076C41.2301 44.5265 40.7825 43.9741 40.3061 43.4188C39.8298 42.8633 39.3565 42.3465 38.8861 41.8682C41.1551 40.7139 43.0091 39.0349 44.448 36.8311C45.8869 34.6273 46.6064 32.1142 46.6064 29.2917C46.6064 25.3387 45.2228 21.9787 42.4557 19.2116C39.6886 16.4445 36.3286 15.0609 32.3756 15.0609C28.4226 15.0609 25.0625 16.4445 22.2955 19.2116C19.5283 21.9787 18.1448 25.3387 18.1448 29.2917C18.1448 29.7582 18.1774 30.2217 18.2427 30.6822C18.3079 31.1428 18.3859 31.5964 18.4768 32.043C17.789 32.1063 17.0311 32.2575 16.203 32.4967C15.3748 32.7358 14.6327 33.0016 13.9765 33.2942C13.8342 32.6893 13.7225 32.0499 13.6415 31.376C13.5604 30.7019 13.5199 30.0072 13.5199 29.2917C13.5199 24.0263 15.3462 19.5674 18.9987 15.9148C22.6513 12.2623 27.1102 10.436 32.3756 10.436C37.6409 10.436 42.0999 12.2623 45.7525 15.9148C49.405 19.5674 51.2312 24.0263 51.2312 29.2917C51.2312 31.5014 50.8646 33.5906 50.1313 35.5592C49.3981 37.5277 48.4246 39.2848 47.211 40.8305L64.9047 58.5715C65.3316 58.9984 65.5579 59.5271 65.5836 60.1576C65.6093 60.7881 65.383 61.3425 64.9047 61.8208C64.458 62.2675 63.9165 62.4908 63.2801 62.4908C62.6437 62.4908 62.1021 62.2675 61.6554 61.8208L43.7246 43.89Z" fill="#414141"/>
</svg>
