<svg width="56" height="58" viewBox="0 0 56 58" fill="none" xmlns="http://www.w3.org/2000/svg">
<path d="M41.7959 11.3274C44.9205 11.3274 47.4543 8.78833 47.4543 5.66283C47.4543 2.53644 44.9205 0 41.7959 0C38.6633 0 36.126 2.53732 36.126 5.66283C36.126 8.78833 38.6633 11.3274 41.7959 11.3274Z" fill="#CAFF00"/>
<path d="M53.536 22.2919L44.0376 23.7738C42.6837 23.984 41.2592 23.0823 40.875 21.7664L38.2599 12.8253C37.8749 11.5102 36.559 9.92849 35.3349 9.31116L22.3657 2.76252C21.1416 2.14519 19.0512 1.90674 17.7194 2.23263L6.34516 5.01723C5.01335 5.34312 3.92442 6.61929 3.92442 7.85306C3.92442 9.08684 5.01424 9.83488 6.34693 9.51517L16.3001 7.12887C17.6337 6.80917 19.6853 7.12445 20.8608 7.82833L24.0834 9.75804C25.2598 10.4619 25.2625 11.6189 24.0896 12.3298L14.1117 18.3706C12.9397 19.0816 11.4322 20.4611 10.7618 21.4396C10.0924 22.4155 12.6465 27.7904 13.2347 29.0295L16.3434 35.617C16.9307 36.8552 16.2896 37.9044 14.9189 37.9044H2.29675C0.926084 37.9044 -0.104565 38.9863 0.00847977 40.3516L0.170099 41.9554C0.281377 43.3226 1.49484 44.0856 2.86639 44.0856H24.8483C26.218 44.0856 26.9414 43.3729 26.4556 42.0914L22.6059 32.1232C22.1184 30.8417 21.4137 28.7981 21.0401 27.4804L20.9111 27.068C20.5367 25.7494 21.199 24.1253 22.3825 23.4356L29.3065 19.4075C30.4899 18.7168 32.0787 17.854 32.8373 17.483C33.5942 17.113 34.5215 17.8911 34.8969 19.2105L37.269 27.5352C37.6435 28.8537 39.0477 29.6963 40.3866 29.4066L53.5642 26.554C54.9031 26.2634 56 25.1003 56 23.9672C56 22.8341 54.8899 22.0808 53.536 22.2919Z" fill="#CAFF00"/>
<path d="M17.6922 45.8519H12.3765C11.0049 45.8519 8.96924 46.3439 7.85028 47.1369L1.61339 51.4812C0.495312 52.2734 0.230362 53.7968 1.02344 54.9158L2.2581 56.6362C3.05206 57.7543 4.57905 57.9601 5.6512 57.1069L18.2345 47.2517C19.3066 46.3986 19.0629 45.8519 17.6922 45.8519Z" fill="#CAFF00"/>
</svg>
