<svg width="94" height="94" viewBox="0 0 94 94" fill="none" xmlns="http://www.w3.org/2000/svg">
<path d="M47.0068 84.2085C41.8605 84.2085 37.0233 83.2319 32.4951 81.2788C27.9669 79.3257 24.028 76.6751 20.6784 73.327C17.3287 69.9788 14.6769 66.0416 12.7229 61.5154C10.769 56.9892 9.79199 52.153 9.79199 47.0068C9.79199 41.8606 10.7685 37.0233 12.7217 32.4951C14.6748 27.9669 17.3254 24.028 20.6735 20.6784C24.0216 17.3287 27.9588 14.6769 32.4851 12.7229C37.0112 10.769 41.8474 9.79199 46.9937 9.79199C52.1399 9.79199 56.9771 10.7686 61.5053 12.7217C66.0336 14.6748 69.9725 17.3254 73.3221 20.6735C76.6718 24.0216 79.3236 27.9588 81.2775 32.4851C83.2315 37.0112 84.2085 41.8474 84.2085 46.9937C84.2085 52.1399 83.2319 56.9771 81.2788 61.5053C79.3257 66.0336 76.6751 69.9725 73.327 73.3221C69.9788 76.6718 66.0416 79.3236 61.5154 81.2775C56.9892 83.2315 52.153 84.2085 47.0068 84.2085ZM47.0002 78.3336C55.7475 78.3336 63.1565 75.2982 69.2273 69.2273C75.2982 63.1565 78.3336 55.7475 78.3336 47.0002C78.3336 38.253 75.2982 30.844 69.2273 24.7731C63.1565 18.7023 55.7475 15.6669 47.0002 15.6669C38.253 15.6669 30.844 18.7023 24.7731 24.7731C18.7023 30.844 15.6669 38.253 15.6669 47.0002C15.6669 55.7475 18.7023 63.1565 24.7731 69.2273C30.844 75.2982 38.253 78.3336 47.0002 78.3336ZM46.9023 73.6636C47.6153 73.6636 48.2392 73.3963 48.774 72.8615C49.3087 72.3267 49.5761 71.7028 49.5761 70.9898V68.9185C52.614 68.5067 55.3645 67.3656 57.8275 65.4951C60.2905 63.6247 61.522 60.7889 61.522 56.9877C61.522 54.2461 60.7135 51.8208 59.0967 49.7118C57.4798 47.6028 54.3214 45.6997 49.6214 44.0025C45.5038 42.5965 42.7696 41.3788 41.4189 40.3494C40.0682 39.3201 39.3928 37.8814 39.3928 36.0336C39.3928 34.1857 40.0845 32.6843 41.4679 31.5294C42.8513 30.3744 44.7607 29.797 47.1961 29.797C48.6523 29.797 49.9265 30.0694 51.0186 30.6142C52.1108 31.159 53.0335 31.8859 53.7866 32.7948C54.2637 33.3772 54.816 33.784 55.4437 34.0149C56.0713 34.2459 56.6658 34.2358 57.2271 33.9848C57.9925 33.6835 58.5155 33.1688 58.7962 32.4407C59.0768 31.7127 59.0063 31.0448 58.5845 30.4372C57.54 28.961 56.2445 27.732 54.6979 26.7504C53.1513 25.7687 51.5093 25.2125 49.772 25.082V23.0106C49.772 22.2976 49.5046 21.6737 48.9698 21.139C48.4351 20.6042 47.8112 20.3368 47.0981 20.3368C46.3851 20.3368 45.7612 20.6042 45.2265 21.139C44.6917 21.6737 44.4243 22.2976 44.4243 23.0106V25.082C41.0851 25.7247 38.5205 27.0792 36.7303 29.1455C34.9402 31.2118 34.0452 33.5078 34.0452 36.0336C34.0452 38.9761 34.9365 41.3437 36.7191 43.1362C38.5016 44.9289 41.4065 46.5483 45.4337 47.9945C49.5964 49.5209 52.4397 50.8905 53.9637 52.1032C55.4877 53.3158 56.2496 54.944 56.2496 56.9877C56.2496 59.4432 55.3634 61.2271 53.5908 62.3393C51.8183 63.4515 49.8172 64.0077 47.5877 64.0077C45.7273 64.0077 44.0458 63.5432 42.5431 62.6142C41.0404 61.6853 39.7819 60.342 38.7676 58.5846C38.371 57.8967 37.8362 57.4335 37.1633 57.1949C36.4905 56.9564 35.8318 56.964 35.1872 57.2177C34.493 57.4714 33.9848 57.9535 33.6624 58.6639C33.3401 59.3742 33.3372 60.0533 33.6535 60.701C34.7481 62.8953 36.1767 64.6503 37.9392 65.9659C39.7017 67.2815 41.7981 68.2004 44.2285 68.7227V70.9898C44.2285 71.7028 44.4959 72.3267 45.0306 72.8615C45.5654 73.3963 46.1893 73.6636 46.9023 73.6636Z" fill="#CAFF00"/>
</svg>
