<svg width="48" height="48" viewBox="0 0 48 48" fill="none" xmlns="http://www.w3.org/2000/svg">
<path d="M33.9859 14.0446L14.0327 14.0089C12.6609 14.0064 11.549 15.1294 11.5466 16.5044L11.5073 31.5044C11.5048 32.8794 12.6252 34.0064 13.9969 34.0088L33.9501 34.0445C35.3219 34.047 36.4463 32.924 36.4488 31.549L36.4756 16.549C36.4781 15.174 35.3577 14.047 33.9859 14.0446ZM33.4776 19.3562L24.6509 24.8654C24.2514 25.1147 23.7276 25.1137 23.329 24.863L14.5221 19.3222C14.2106 19.1217 14.0242 18.7838 14.0248 18.4213C14.0263 17.5839 14.9376 17.0855 15.6476 17.5243L23.9937 22.7767L32.3584 17.5541C33.0701 17.1179 33.9795 17.6195 33.978 18.457C33.9774 18.8195 33.7897 19.1567 33.4776 19.3562Z" fill="#0054FF"/>
<circle cx="24" cy="24" r="23" stroke="#0054FF" stroke-width="2"/>
</svg>
