<svg width="22" height="22" viewBox="0 0 22 22" fill="none" xmlns="http://www.w3.org/2000/svg">
<path d="M21.1141 11.1903L18.8465 8.38927L19.1625 4.68463L15.8075 3.86138L14.0511 0.648682L10.8913 2.11447L7.7315 0.648682L5.97503 3.85134L2.62009 4.66455L2.93607 8.37924L0.668457 11.1903L2.93607 13.9914L2.62009 17.7061L5.97503 18.5294L7.7315 21.732L10.8913 20.2562L14.0511 21.722L15.8075 18.5193L19.1625 17.6961L18.8465 13.9914L21.1141 11.1903ZM8.45639 15.2163L6.24454 12.8067C5.8821 12.4152 5.8821 11.7827 6.24454 11.3911L6.3096 11.3209C6.67204 10.9293 7.26683 10.9293 7.62927 11.3209L9.12552 12.9473L13.9117 7.76681C14.2741 7.37527 14.8689 7.37527 15.2313 7.76681L15.2964 7.83709C15.6588 8.22864 15.6588 8.86114 15.2964 9.25269L9.79465 15.2163C9.41362 15.6078 8.82813 15.6078 8.45639 15.2163Z" fill="#518AFF"/>
</svg>
