<svg width="260" height="258" viewBox="0 0 260 258" fill="none" xmlns="http://www.w3.org/2000/svg">
<ellipse cx="130.114" cy="129" rx="129.864" ry="129" fill="#EFFFB4"/>
<g clip-path="url(#clip0_429_3742)">
<path d="M157.128 79.1667C165.618 79.1667 172.564 72.2667 172.564 63.8333C172.564 55.4 165.618 48.5 157.128 48.5C148.638 48.5 141.692 55.4 141.692 63.8333C141.692 72.2667 148.638 79.1667 157.128 79.1667ZM76.0883 129C54.4777 129 37.498 145.867 37.498 167.333C37.498 188.8 54.4777 205.667 76.0883 205.667C97.6988 205.667 114.678 188.8 114.678 167.333C114.678 145.867 97.6988 129 76.0883 129ZM76.0883 194.167C61.424 194.167 49.0751 181.9 49.0751 167.333C49.0751 152.767 61.424 140.5 76.0883 140.5C90.7526 140.5 103.101 152.767 103.101 167.333C103.101 181.9 90.7526 194.167 76.0883 194.167ZM120.853 117.5L139.376 99.1L145.551 105.233C153.732 113.36 163.92 118.88 176.114 120.72C180.745 121.41 184.913 117.73 184.913 113.053C184.913 109.297 182.057 106.077 178.352 105.463C169.785 104.083 162.762 100.02 157.128 94.5L142.463 79.9333C138.604 76.8667 134.745 75.3333 130.115 75.3333C125.484 75.3333 121.625 76.8667 119.309 79.9333L97.6988 101.4C94.6116 104.467 93.068 108.3 93.068 112.133C93.068 116.733 94.6116 120.567 97.6988 122.867L122.397 144.333V175C122.397 179.217 125.87 182.667 130.115 182.667C134.36 182.667 137.833 179.217 137.833 175V141.267C137.833 137.28 136.289 133.523 133.588 130.687L120.853 117.5ZM184.141 129C162.53 129 145.551 145.867 145.551 167.333C145.551 188.8 162.53 205.667 184.141 205.667C205.751 205.667 222.731 188.8 222.731 167.333C222.731 145.867 205.751 129 184.141 129ZM184.141 194.167C169.477 194.167 157.128 181.9 157.128 167.333C157.128 152.767 169.477 140.5 184.141 140.5C198.805 140.5 211.154 152.767 211.154 167.333C211.154 181.9 198.805 194.167 184.141 194.167Z" fill="#77C000"/>
</g>
<defs>
<clipPath id="clip0_429_3742">
<rect width="185.233" height="184" fill="white" transform="translate(37.498 37)"/>
</clipPath>
</defs>
</svg>
