<svg width="260" height="258" viewBox="0 0 260 258" fill="none" xmlns="http://www.w3.org/2000/svg">
<ellipse cx="130.042" cy="129" rx="129.864" ry="129" fill="#E8E8FF"/>
<g clip-path="url(#clip0_429_3743)">
<path d="M141.543 79.0124C150.033 79.0124 156.979 72.1124 156.979 63.679C156.979 55.2457 150.033 48.3457 141.543 48.3457C133.053 48.3457 126.107 55.2457 126.107 63.679C126.107 72.1124 133.053 79.0124 141.543 79.0124ZM117.077 171.012L121.476 151.846L137.684 167.179V205.512C137.684 209.729 141.157 213.179 145.402 213.179C149.647 213.179 153.12 209.729 153.12 205.512V162.272C153.12 158.056 151.422 154.069 148.335 151.156L136.912 140.346L141.543 117.346C149.801 126.852 161.764 133.676 175.194 135.822C179.824 136.512 183.992 132.832 183.992 128.156C183.992 124.399 181.214 121.256 177.432 120.642C165.7 118.726 155.976 111.826 150.804 102.779L143.086 90.5124C139.999 85.9124 135.368 82.8457 129.966 82.8457C127.65 82.8457 126.107 83.6124 123.791 83.6124L93.0735 96.4924C87.3622 98.9457 83.6575 104.466 83.6575 110.676V128.846C83.6575 133.062 87.1306 136.512 91.3755 136.512C95.6205 136.512 99.0936 133.062 99.0936 128.846V110.446L112.986 105.079L100.637 167.179L70.3825 161.046C66.2147 160.202 62.1242 162.886 61.2752 167.026V167.332C60.4262 171.472 63.1275 175.536 67.2952 176.379L99.0164 182.666C107.198 184.276 115.224 179.139 117.077 171.012V171.012Z" fill="#5753FF"/>
</g>
<defs>
<clipPath id="clip0_429_3743">
<rect width="185.233" height="184" fill="white" transform="translate(37.4258 37)"/>
</clipPath>
</defs>
</svg>
