<svg width="261" height="258" viewBox="0 0 261 258" fill="none" xmlns="http://www.w3.org/2000/svg">
<ellipse cx="130.179" cy="129" rx="129.864" ry="129" fill="#D6EEFF"/>
<g clip-path="url(#clip0_429_3741)">
<path d="M84.7192 79.6262C93.9037 80.6996 100.387 84.0729 107.024 90.6662L114.742 98.3329L89.6587 123.25C92.0513 124.17 93.9808 125.32 95.6016 126.24C98.4573 128.003 100.155 129 104.477 129C108.799 129 110.497 128.003 113.353 126.24C116.903 124.17 121.689 121.333 130.256 121.333C138.823 121.333 143.608 124.17 147.081 126.24C149.937 127.926 151.712 129 155.957 129C160.202 129 161.977 128.003 164.832 126.24C165.759 125.703 166.839 125.09 167.997 124.476L118.447 75.3329C108.722 65.6729 99.615 61.5329 86.1856 60.3829C80.783 59.9229 76.1522 64.2929 76.1522 69.6596V70.3496C76.1522 75.1796 79.934 79.0129 84.7192 79.6262ZM202.342 181.976C201.03 181.516 199.872 180.826 198.483 179.906C195.01 177.836 190.225 175 181.658 175C173.091 175 168.306 177.836 164.832 179.906C161.977 181.67 160.202 182.666 155.957 182.666C151.712 182.666 149.937 181.593 147.081 179.906C143.608 177.836 138.823 175 130.256 175C121.689 175 116.903 177.836 113.353 179.906C110.497 181.67 108.799 182.666 104.477 182.666C100.155 182.666 98.4573 181.67 95.6016 179.906C92.1285 177.836 87.3433 175 78.7763 175C70.2093 175 65.4241 177.836 61.8738 179.906C60.4845 180.75 59.3268 181.44 58.0148 181.976C55.0819 182.973 52.998 185.426 52.998 188.493V189.413C52.998 194.55 58.092 198.076 63.0315 196.39C65.8872 195.393 68.0482 194.09 69.9006 193.016C72.7562 191.33 74.5314 190.333 78.7763 190.333C83.0212 190.333 84.7964 191.33 87.652 193.093C91.1252 195.163 95.9103 198 104.477 198C113.044 198 117.83 195.163 121.38 193.093C124.236 191.33 125.934 190.333 130.256 190.333C134.501 190.333 136.276 191.406 139.131 193.093C142.604 195.163 147.39 198 155.957 198C164.524 198 169.232 195.163 172.782 193.093C175.638 191.33 177.336 190.333 181.658 190.333C185.903 190.333 187.678 191.406 190.534 193.093C192.309 194.166 194.47 195.47 197.325 196.466C202.188 198.153 207.359 194.626 207.359 189.49V188.57C207.359 185.426 205.275 182.973 202.342 181.976ZM61.5651 162.35C65.1925 161.353 67.8167 159.82 69.9777 158.593C72.8334 156.83 74.6086 155.833 78.8535 155.833C83.0984 155.833 84.8736 156.906 87.7292 158.593C91.2023 160.663 95.9875 163.5 104.555 163.5C113.122 163.5 117.907 160.663 121.38 158.593C124.236 156.83 125.934 155.833 130.256 155.833C134.501 155.833 136.276 156.906 139.131 158.593C142.604 160.663 147.39 163.5 155.957 163.5C164.524 163.5 169.309 160.663 172.782 158.593C175.638 156.83 177.336 155.833 181.658 155.833C185.903 155.833 187.678 156.906 190.534 158.593C192.309 159.666 194.393 160.893 197.094 161.89C201.956 163.653 207.204 160.05 207.204 154.913V153.993C207.204 150.926 205.121 148.473 202.265 147.4C200.953 146.94 199.795 146.25 198.329 145.406C194.856 143.336 190.07 140.5 181.503 140.5C172.936 140.5 168.151 143.336 164.678 145.406C161.822 147.17 160.047 148.166 155.802 148.166C151.557 148.166 149.782 147.093 146.927 145.406C143.453 143.336 138.668 140.5 130.101 140.5C121.534 140.5 116.749 143.336 113.276 145.406C110.42 147.17 108.722 148.166 104.4 148.166C100.155 148.166 98.3801 147.093 95.5244 145.406C92.0513 143.336 87.2661 140.5 78.6991 140.5C70.1321 140.5 65.3469 143.336 61.8738 145.406C60.4845 146.25 59.3268 146.94 58.0148 147.476C55.0819 148.473 52.998 150.926 52.998 153.993V155.756C52.998 160.203 57.243 163.576 61.5651 162.35V162.35Z" fill="#0054FF"/>
<path d="M164.91 98.3333C175.567 98.3333 184.205 89.7521 184.205 79.1667C184.205 68.5812 175.567 60 164.91 60C154.254 60 145.615 68.5812 145.615 79.1667C145.615 89.7521 154.254 98.3333 164.91 98.3333Z" fill="#0054FF"/>
</g>
<defs>
<clipPath id="clip0_429_3741">
<rect width="185.233" height="184" fill="white" transform="translate(37.5625 37)"/>
</clipPath>
</defs>
</svg>
