<svg width="260" height="258" viewBox="0 0 260 258" fill="none" xmlns="http://www.w3.org/2000/svg">
<ellipse cx="129.978" cy="129" rx="129.864" ry="129" fill="#FFE8E8"/>
<g clip-path="url(#clip0_429_3744)">
<path d="M141.555 79.1667C150.045 79.1667 156.991 72.2667 156.991 63.8333C156.991 55.4 150.045 48.5 141.555 48.5C133.065 48.5 126.119 55.4 126.119 63.8333C126.119 72.2667 133.065 79.1667 141.555 79.1667ZM112.998 105.233L93.2403 204.21C92.2369 208.887 95.9416 213.333 100.804 213.333H101.421C105.049 213.333 108.136 210.88 108.985 207.353L121.488 152L137.696 167.333V205.667C137.696 209.883 141.169 213.333 145.414 213.333C149.659 213.333 153.132 209.883 153.132 205.667V162.427C153.132 158.21 151.434 154.223 148.347 151.31L136.924 140.5L141.555 117.5C149.814 127.007 161.777 133.83 175.206 135.977C179.837 136.667 184.005 132.987 184.005 128.31C184.005 124.553 181.226 121.41 177.444 120.797C165.713 118.88 155.988 111.98 150.817 102.933L143.099 90.6667C138.777 83.8433 130.133 81.0833 122.646 84.2267L93.0859 96.6467C87.3746 99.1 83.6699 104.62 83.6699 110.83V129C83.6699 133.217 87.143 136.667 91.388 136.667C95.6329 136.667 99.106 133.217 99.106 129V110.6L112.998 105.233Z" fill="#FF6060"/>
</g>
<defs>
<clipPath id="clip0_429_3744">
<rect width="185.233" height="184" fill="white" transform="translate(37.3613 37)"/>
</clipPath>
</defs>
</svg>
