<svg width="113.99999999999999" height="22" xmlns="http://www.w3.org/2000/svg" fill="none">

 <g>
  <title>Layer 1</title>
  <path id="svg_1" fill="#ffffff" d="m112.155,4.56322c-0.731,-1.22606 -1.788,-2.16603 -3.089,-2.81993c-1.3,-0.65389 -2.804,-0.98084 -4.471,-0.98084c-2.113,0 -4.064,0.40869 -5.8524,1.26692c-1.7884,0.85824 -3.2923,2.04343 -4.471,3.59643c-1.1787,1.553 -1.9916,3.35121 -2.4387,5.3946c-0.1626,0.7357 -0.2439,1.4713 -0.2439,2.1661c0,1.5938 0.4065,2.9834 1.1787,4.2094c0.7723,1.2261 1.8291,2.166 3.1297,2.8199c1.3413,0.6539 2.7639,0.9809 4.3896,0.9809c2.114,0 4.065,-0.4087 5.853,-1.2669c1.788,-0.8583 3.252,-2.0435 4.471,-3.5965c1.219,-1.553 2.032,-3.3103 2.439,-5.3537c0.162,-0.7765 0.244,-1.55304 0.244,-2.2478c-0.041,-1.553 -0.407,-2.9834 -1.139,-4.16858zm-5.893,6.45718c-0.244,1.2261 -0.813,2.1661 -1.707,2.9017c-0.894,0.6948 -1.87,1.0626 -3.008,1.0626c-1.097,0 -1.9509,-0.2044 -2.4386,-0.6539c-0.5284,-0.4496 -0.7723,-1.0626 -0.7723,-1.9208c0,-0.4496 0.0407,-0.8991 0.1626,-1.3896c0.2439,-1.22602 0.8129,-2.166 1.7073,-2.90163c0.894,-0.69476 1.91,-1.06258 3.048,-1.06258c2.114,0 3.171,0.89911 3.171,2.69732c0,0.32699 -0.041,0.73559 -0.163,1.26689z"/>
  <path id="svg_2" fill="#ffffff" d="m35.4174,1.17114l-2.1135,8.90936l-2.7233,-8.90936l-4.7148,0l-2.7232,8.90936l-2.1136,-8.90936l-6.0561,0l4.1865,19.65776l6.178,0l2.8858,-9.3998l2.8858,9.3998l6.2187,0l4.1458,-19.65776l-6.0561,0z"/>
  <path id="svg_3" fill="#ffffff" d="m14.16,10.6118c-0.691,-0.5721 -1.7071,-1.1034 -3.0484,-1.67556l-1.0161,-0.40869c-0.81292,-0.32694 -1.34131,-0.57215 -1.66647,-0.7765c-0.32516,-0.20434 -0.4471,-0.40868 -0.4471,-0.69476c0,-0.57216 0.65033,-0.85824 1.99162,-0.85824c1.62585,0 3.29225,0.44956 4.95875,1.38953l0,-0.08174l-1.3007,-6.04853c-0.4877,-0.16347 -0.9755,-0.32695 -1.5039,-0.40868c-0.9754,-0.20434 -2.1135,-0.32695 -3.37351,-0.32695c-1.54451,0 -2.92645,0.24521 -4.10516,0.7765c-1.21935,0.53129 -2.11355,1.26692 -2.80452,2.16603c-0.65032,0.93997 -0.97548,2.00255 -0.97548,3.18774c0,1.38953 0.40645,2.57471 1.21935,3.51465c0.81291,0.9809 2.11355,1.8391 3.90194,2.6156c1.21936,0.5313 1.99161,0.94 2.35742,1.1852c0.36581,0.2452 0.56903,0.5313 0.56903,0.8582c0,0.2453 -0.12193,0.4087 -0.3658,0.5313c-0.24388,0.1226 -0.65033,0.1635 -1.21936,0.1635c-0.97548,0 -2.0729,-0.1635 -3.21097,-0.4496c-1.17871,-0.286 -2.27613,-0.7356 -3.29226,-1.3486l0,5.8033c0.81291,0.4496 1.86968,0.8174 3.17033,1.0626c1.30064,0.2452 2.60129,0.4087 3.90193,0.4087c2.76386,0 4.83676,-0.5313 6.21876,-1.6348c1.3819,-1.0625 2.0729,-2.5747 2.0729,-4.4546c0,-1.0626 -0.1626,-1.9617 -0.4471,-2.6565c-0.3658,-0.6539 -0.8942,-1.2669 -1.5852,-1.8391z"/>
  <path id="svg_4" fill="#ffffff" d="m89.8006,2.64241c-1.1787,-0.98085 -2.7638,-1.47127 -4.7961,-1.47127l-2.9265,0l-6.4625,0l-18.0058,0l-1.7071,0l-12.7626,0l-4.1458,19.61686l14.4697,0l1.1787,-5.599l-7.8446,0l0.3659,-1.7165l5.5683,0l1.0162,-4.9859l-5.5684,0l0.3658,-1.71648l6.1374,0l1.7071,0l5.4058,0l-2.9671,14.05878l6.6252,0l2.9671,-14.01791l3.2922,0l7.7633,0l1.6258,0l1.1787,0c1.4632,0 2.2355,0.7765 2.2355,1.63474c-0.0813,2.94257 -2.8452,2.65647 -2.8452,2.65647c-4.471,0.0817 -7.4787,-3.3921 -7.4787,-3.3921l-2.7639,13.1188l6.5032,0l1.0975,-5.3538l1.26,0l1.4632,5.3538l6.6658,0l-1.7478,-6.3755c1.1788,-0.5722 2.1542,-1.3895 2.9265,-2.4112c0.7723,-1.0218 1.3413,-2.24781 1.6665,-3.71908c0.1219,-0.53129 0.2032,-1.10345 0.2032,-1.6756c0.0813,-1.71648 -0.4878,-3.02427 -1.6665,-4.00511z"/>
 </g>
</svg>