<svg width="114" height="22" viewBox="0 0 114 22" fill="none" xmlns="http://www.w3.org/2000/svg">
<path d="M112.155 4.56322C111.424 3.33716 110.367 2.39719 109.066 1.74329C107.766 1.0894 106.262 0.762451 104.595 0.762451C102.482 0.762451 100.531 1.17114 98.7426 2.02937C96.9542 2.88761 95.4503 4.0728 94.2716 5.6258C93.0929 7.1788 92.28 8.97701 91.8329 11.0204C91.6703 11.7561 91.589 12.4917 91.589 13.1865C91.589 14.7803 91.9955 16.1699 92.7677 17.3959C93.54 18.622 94.5968 19.5619 95.8974 20.2158C97.2387 20.8697 98.6613 21.1967 100.287 21.1967C102.401 21.1967 104.352 20.788 106.14 19.9298C107.928 19.0715 109.392 17.8863 110.611 16.3333C111.83 14.7803 112.643 13.023 113.05 10.9796C113.212 10.2031 113.294 9.42656 113.294 8.7318C113.253 7.1788 112.887 5.7484 112.155 4.56322ZM106.262 11.0204C106.018 12.2465 105.449 13.1865 104.555 13.9221C103.661 14.6169 102.685 14.9847 101.547 14.9847C100.45 14.9847 99.5961 14.7803 99.1084 14.3308C98.58 13.8812 98.3361 13.2682 98.3361 12.41C98.3361 11.9604 98.3768 11.5109 98.4987 11.0204C98.7426 9.79438 99.3116 8.8544 100.206 8.11877C101.1 7.42401 102.116 7.05619 103.254 7.05619C105.368 7.05619 106.425 7.9553 106.425 9.75351C106.425 10.0805 106.384 10.4891 106.262 11.0204Z" fill="#161616"/>
<path d="M35.4174 1.17114L33.3039 10.0805L30.5806 1.17114H25.8658L23.1426 10.0805L21.029 1.17114H14.9729L19.1594 20.8289H25.3374L28.2232 11.4291L31.109 20.8289H37.3277L41.4735 1.17114H35.4174Z" fill="#161616"/>
<path d="M14.16 10.6118C13.469 10.0397 12.4529 9.5084 11.1116 8.93624L10.0955 8.52755C9.28258 8.20061 8.75419 7.9554 8.42903 7.75105C8.10387 7.54671 7.98193 7.34237 7.98193 7.05629C7.98193 6.48413 8.63226 6.19805 9.97355 6.19805C11.5994 6.19805 13.2658 6.64761 14.9323 7.58758V7.50584L13.6316 1.45731C13.1439 1.29384 12.6561 1.13036 12.1277 1.04863C11.1523 0.844285 10.0142 0.72168 8.75419 0.72168C7.20968 0.72168 5.82774 0.96689 4.64903 1.49818C3.42968 2.02947 2.53548 2.7651 1.84451 3.66421C1.19419 4.60418 0.86903 5.66676 0.86903 6.85195C0.86903 8.24148 1.27548 9.42666 2.08838 10.3666C2.90129 11.3475 4.20193 12.2057 5.99032 12.9822C7.20968 13.5135 7.98193 13.9222 8.34774 14.1674C8.71355 14.4126 8.91677 14.6987 8.91677 15.0256C8.91677 15.2709 8.79484 15.4343 8.55097 15.5569C8.30709 15.6795 7.90064 15.7204 7.33161 15.7204C6.35613 15.7204 5.25871 15.5569 4.12064 15.2708C2.94193 14.9848 1.84451 14.5352 0.828384 13.9222V19.7255C1.64129 20.1751 2.69806 20.5429 3.99871 20.7881C5.29935 21.0333 6.6 21.1968 7.90064 21.1968C10.6645 21.1968 12.7374 20.6655 14.1194 19.562C15.5013 18.4995 16.1923 16.9873 16.1923 15.1074C16.1923 14.0448 16.0297 13.1457 15.7452 12.4509C15.3794 11.797 14.851 11.184 14.16 10.6118Z" fill="#161616"/>
<path d="M89.8006 2.64241C88.6219 1.66156 87.0368 1.17114 85.0045 1.17114H82.078H75.6155H57.6097H55.9026H43.14L38.9942 20.788H53.4639L54.6426 15.189H46.798L47.1639 13.4725H52.7322L53.7484 8.4866H48.18L48.5458 6.77012H54.6832H56.3903H61.7961L58.829 20.8289H65.4542L68.4213 6.81099H71.7135H79.4768H81.1026H82.2813C83.7445 6.81099 84.5168 7.58749 84.5168 8.44573C84.4355 11.3883 81.6716 11.1022 81.6716 11.1022C77.2006 11.1839 74.1929 7.7101 74.1929 7.7101L71.429 20.8289H77.9322L79.0297 15.4751H80.2897L81.7529 20.8289H88.4187L86.6709 14.4534C87.8497 13.8812 88.8251 13.0639 89.5974 12.0422C90.3697 11.0204 90.9387 9.79439 91.2639 8.32312C91.3858 7.79183 91.4671 7.21967 91.4671 6.64752C91.5484 4.93104 90.9793 3.62325 89.8006 2.64241Z" fill="#161616"/>
</svg>
